<?xml version="1.0" ?><!DOCTYPE svg  PUBLIC '-//W3C//DTD SVG 1.1//EN'  'http://www.w3.org/Graphics/SVG/1.1/DTD/svg11.dtd'><svg xmlns="http://www.w3.org/2000/svg" xmlns:xlink="http://www.w3.org/1999/xlink" xmlns:serif="http://www.serif.com/" width="100%" height="100%" viewBox="0 0 64 64" version="1.1" xml:space="preserve" style="fill-rule:evenodd;clip-rule:evenodd;stroke-linejoin:round;stroke-miterlimit:2;"><g><g transform="matrix(0.909137,-0.909137,1.06066,1.06066,-28.4,27.9665)"><path d="M31,6.667C22.415,6.667 15.444,12.641 15.444,20C15.444,27.359 22.415,33.333 31,33.333C39.585,33.333 46.556,27.359 46.556,20C46.556,12.641 39.585,6.667 31,6.667ZM31,9.333C37.868,9.333 43.444,14.113 43.444,20C43.444,25.887 37.868,30.667 31,30.667C24.132,30.667 18.556,25.887 18.556,20C18.556,14.113 24.132,9.333 31,9.333Z"/></g><g transform="matrix(0.606092,-0.606092,0.707107,0.707107,-11.9345,25.6432)"><path d="M31,10C37.439,10 42.667,14.481 42.667,20C42.667,21.104 43.712,22 45,22C46.288,22 47.333,21.104 47.333,20C47.333,12.273 40.015,6 31,6C29.712,6 28.667,6.896 28.667,8C28.667,9.104 29.712,10 31,10Z"/></g><g transform="matrix(0.707107,-0.707107,0.707107,0.707107,-16.4802,28.7746)"><path d="M32,74.159C31.47,74.159 30.961,73.949 30.586,73.574C30.211,73.198 30,72.69 30,72.159L30,44.034C30,42.931 29.104,42.034 28,42.034C26.896,42.034 26,42.931 26,44.034L26,72.159C26,73.751 26.632,75.277 27.757,76.402C28.883,77.527 30.409,78.159 32,78.159C32,78.159 32,78.159 32,78.159C33.591,78.159 35.117,77.527 36.243,76.402C37.368,75.277 38,73.751 38,72.159C38,69.213 38,47.884 38,43.902C38,42.798 37.104,41.902 36,41.902C34.896,41.902 34,42.798 34,43.902L34,72.159C34,72.69 33.789,73.198 33.414,73.574C33.039,73.949 32.53,74.159 32,74.159Z"/></g></g></svg>