<?xml version="1.0" ?><!DOCTYPE svg  PUBLIC '-//W3C//DTD SVG 1.1//EN'  'http://www.w3.org/Graphics/SVG/1.1/DTD/svg11.dtd'><svg xmlns="http://www.w3.org/2000/svg" xmlns:xlink="http://www.w3.org/1999/xlink" xmlns:serif="http://www.serif.com/" width="100%" height="100%" viewBox="0 0 64 64" version="1.1" xml:space="preserve" style="fill-rule:evenodd;clip-rule:evenodd;stroke-linejoin:round;stroke-miterlimit:2;"><path d="M56.981,11.277C57.061,10.704 56.889,10.124 56.509,9.687C56.129,9.251 55.579,9 55,9L9,9C8.421,9 7.871,9.251 7.491,9.687C7.111,10.124 6.939,10.704 7.019,11.277L14.019,61.277C14.158,62.265 15.003,63 16,63L48,63C48.997,63 49.842,62.265 49.981,61.277L56.981,11.277ZM52.7,13L46.26,59C46.26,59 17.74,59 17.74,59C17.74,59 11.3,13 11.3,13L52.7,13Z"/><path d="M27,3C27,3 9,3 9,3C7.896,3 7,3.896 7,5C7,6.104 7.896,7 9,7L55,7C56.104,7 57,6.104 57,5C57,3.896 56.104,3 55,3L38,3C38,1.896 37.104,1 36,1L29,1C27.896,1 27,1.896 27,3Z"/><g transform="matrix(1,0,0,1,2,0)"><path d="M14.019,18.275L19.019,54.275C19.171,55.368 20.182,56.133 21.275,55.981C22.368,55.829 23.133,54.818 22.981,53.725L17.981,17.725C17.829,16.632 16.818,15.867 15.725,16.019C14.632,16.171 13.867,17.182 14.019,18.275Z"/></g><g transform="matrix(-1,0,0,1,62,0)"><path d="M17.981,17.725L22.981,53.725C23.133,54.818 22.368,55.829 21.275,55.981C20.182,56.133 19.171,55.368 19.019,54.275L14.019,18.275C13.867,17.182 14.632,16.171 15.725,16.019C16.818,15.867 17.829,16.632 17.981,17.725Z"/></g><path d="M30,18L30,54C30,55.104 30.896,56 32,56C33.104,56 34,55.104 34,54L34,18C34,16.896 33.104,16 32,16C30.896,16 30,16.896 30,18Z"/></svg>