<?xml version="1.0" ?><!DOCTYPE svg  PUBLIC '-//W3C//DTD SVG 1.1//EN'  'http://www.w3.org/Graphics/SVG/1.1/DTD/svg11.dtd'><svg xmlns="http://www.w3.org/2000/svg" xmlns:xlink="http://www.w3.org/1999/xlink" xmlns:serif="http://www.serif.com/" width="100%" height="100%" viewBox="0 0 64 64" version="1.1" xml:space="preserve" style="fill-rule:evenodd;clip-rule:evenodd;stroke-linejoin:round;stroke-miterlimit:2;"><g><g transform="matrix(1,0,0,1,1,1)"><path d="M46,18.288L46,17.712C46,7.93 38.07,-0 28.288,-0L17.712,0C7.93,-0 0,7.93 0,17.712L0,34C0,35.105 0.895,36 2,36L28.288,36C38.07,36 46,28.07 46,18.288ZM42,17.712L42,18.288C42,25.861 35.861,32 28.288,32L4,32L4,17.712C4,10.139 10.139,4 17.712,4L28.288,4C35.861,4 42,10.139 42,17.712Z"/></g><g transform="matrix(-1,0,0,1,63,27)"><path d="M14.143,4.468C8.3,6.038 4,11.373 4,17.712L4,32L28.288,32C35.861,32 42,25.861 42,18.288L42,17.712C42,16.663 41.883,15.641 41.66,14.66C41.415,13.583 42.091,12.511 43.167,12.266C44.243,12.022 45.316,12.697 45.56,13.774C45.848,15.04 46,16.358 46,17.712L46,18.288C46,28.07 38.07,36 28.288,36L2,36C0.895,36 0,35.105 0,34L0,17.712C0,9.523 5.557,2.634 13.105,0.605C14.171,0.319 15.269,0.952 15.556,2.018C15.842,3.084 15.209,4.182 14.143,4.468Z"/></g><g transform="matrix(1,0,0,1,-0.5,2)"><path d="M13,15L36,15C37.104,15 38,14.104 38,13C38,11.896 37.104,11 36,11L13,11C11.896,11 11,11.896 11,13C11,14.104 11.896,15 13,15Z"/></g><g transform="matrix(1,0,0,1,15,33)"><path d="M33,15L37,15C38.104,15 39,14.104 39,13C39,11.896 38.104,11 37,11L33,11C31.896,11 31,11.896 31,13C31,14.104 31.896,15 33,15Z"/></g><g transform="matrix(1,0,0,1,5,33)"><path d="M33,15L37,15C38.104,15 39,14.104 39,13C39,11.896 38.104,11 37,11L33,11C31.896,11 31,11.896 31,13C31,14.104 31.896,15 33,15Z"/></g><g transform="matrix(1,0,0,1,-5,33)"><path d="M33,15L37,15C38.104,15 39,14.104 39,13C39,11.896 38.104,11 37,11L33,11C31.896,11 31,11.896 31,13C31,14.104 31.896,15 33,15Z"/></g><g transform="matrix(1,0,0,1,-0.5,10)"><path d="M13,15L36,15C37.104,15 38,14.104 38,13C38,11.896 37.104,11 36,11L13,11C11.896,11 11,11.896 11,13C11,14.104 11.896,15 13,15Z"/></g></g></svg>