<?xml version="1.0" ?><!DOCTYPE svg  PUBLIC '-//W3C//DTD SVG 1.1//EN'  'http://www.w3.org/Graphics/SVG/1.1/DTD/svg11.dtd'><svg xmlns="http://www.w3.org/2000/svg" xmlns:xlink="http://www.w3.org/1999/xlink" xmlns:serif="http://www.serif.com/" width="100%" height="100%" viewBox="0 0 64 64" version="1.1" xml:space="preserve" style="fill-rule:evenodd;clip-rule:evenodd;stroke-linejoin:round;stroke-miterlimit:2;"><g><path d="M7,10L4,10C2.896,10 2,10.896 2,12C2,13.104 2.896,14 4,14L7,14L7,20L4,20C2.896,20 2,20.896 2,22C2,23.104 2.896,24 4,24L7,24L7,30L4,30C2.896,30 2,30.896 2,32C2,33.104 2.896,34 4,34L7,34L7,40L4,40C2.896,40 2,40.896 2,42C2,43.104 2.896,44 4,44L7,44L7,50L4,50C2.896,50 2,50.896 2,52C2,53.104 2.896,54 4,54L7,54L7,61C7,62.105 7.895,63 9,63L60,63C61.105,63 62,62.105 62,61L62,3C62,1.895 61.105,1 60,1L9,1C7.895,1 7,1.895 7,3L7,10ZM11,54L11,59L58,59L58,5L11,5L11,10L14,10C15.104,10 16,10.896 16,12C16,13.104 15.104,14 14,14L11,14L11,20L14,20C15.104,20 16,20.896 16,22C16,23.104 15.104,24 14,24L11,24L11,30L14,30C15.104,30 16,30.896 16,32C16,33.104 15.104,34 14,34L11,34L11,40L14,40C15.104,40 16,40.896 16,42C16,43.104 15.104,44 14,44L11,44L11,50L14,50C15.104,50 16,50.896 16,52C16,53.104 15.104,54 14,54L11,54Z"/><g transform="matrix(1.3632,0,0,1.1153,-5.60204,7.91011)"><path d="M40.054,25.112C40.054,21.191 37.454,18.013 34.246,18.013C32.573,18.013 29.93,18.013 28.257,18.013C25.049,18.013 22.449,21.191 22.449,25.112L22.449,37.739C22.449,38.729 23.106,39.532 23.916,39.532L38.587,39.532C39.397,39.532 40.054,38.729 40.054,37.739L40.054,25.112ZM37.12,25.112L37.12,35.946C37.12,35.946 25.383,35.946 25.383,35.946C25.383,35.946 25.383,25.112 25.383,25.112C25.383,23.172 26.67,21.6 28.257,21.6C28.257,21.6 34.246,21.6 34.246,21.6C35.833,21.6 37.12,23.172 37.12,25.112Z"/></g><g transform="matrix(5.85571e-17,0.757334,-0.368789,1.95232e-17,48.3043,-4.11224)"><path d="M39.761,32.805L39.761,28.5C39.761,20.704 36.683,14.383 32.886,14.383L28.149,14.383C24.353,14.383 21.275,20.704 21.275,28.5L21.275,32.805C21.275,40.602 24.353,46.922 28.149,46.922L32.886,46.922C36.683,46.922 39.761,40.602 39.761,32.805ZM34.479,28.5L34.479,32.805C34.479,34.611 33.766,36.076 32.886,36.076C32.886,36.076 28.149,36.076 28.149,36.076C27.27,36.076 26.557,34.611 26.557,32.805C26.557,32.805 26.557,28.5 26.557,28.5C26.557,26.694 27.27,25.23 28.149,25.229C28.149,25.229 32.886,25.229 32.886,25.229C33.766,25.23 34.479,26.694 34.479,28.5Z"/></g></g></svg>