<?xml version="1.0" ?><!DOCTYPE svg  PUBLIC '-//W3C//DTD SVG 1.1//EN'  'http://www.w3.org/Graphics/SVG/1.1/DTD/svg11.dtd'><svg xmlns="http://www.w3.org/2000/svg" xmlns:xlink="http://www.w3.org/1999/xlink" xmlns:serif="http://www.serif.com/" width="100%" height="100%" viewBox="0 0 64 64" version="1.1" xml:space="preserve" style="fill-rule:evenodd;clip-rule:evenodd;stroke-linejoin:round;stroke-miterlimit:2;"><g><path d="M54,6L44,6L44,3C44,1.896 43.104,1 42,1C40.896,1 40,1.896 40,3L40,6L34,6L34,3C34,1.896 33.104,1 32,1C30.896,1 30,1.896 30,3L30,6L24,6L24,3C24,1.896 23.104,1 22,1C20.896,1 20,1.896 20,3L20,6L10,6C8.895,6 8,6.895 8,8L8,61C8,62.105 8.895,63 10,63L54,63C55.105,63 56,62.105 56,61L56,8C56,6.895 55.105,6 54,6ZM20,12L20,10L12,10L12,59L52,59L52,10L44,10L44,12L48,12C49.105,12 50,12.895 50,14L50,55C50,56.105 49.105,57 48,57L16,57C14.895,57 14,56.105 14,55L14,14C14,12.895 14.895,12 16,12L20,12ZM20,16L18,16C18,16 18,53 18,53C18,53 46,53 46,53L46,16L44,16C44,17.104 43.104,18 42,18C40.896,18 40,17.104 40,16L34,16C34,17.104 33.104,18 32,18C30.896,18 30,17.104 30,16L24,16C24,17.104 23.104,18 22,18C20.896,18 20,17.104 20,16L20,16ZM30,12L30,10L24,10L24,12L30,12ZM40,12L40,10L34,10L34,12L40,12Z"/><g transform="matrix(1,0,0,1,0,-1)"><path d="M22,26L42,26C43.104,26 44,25.104 44,24C44,22.896 43.104,22 42,22L22,22C20.896,22 20,22.896 20,24C20,25.104 20.896,26 22,26Z"/></g><g transform="matrix(1,0,0,1,0,7)"><path d="M22,26L42,26C43.104,26 44,25.104 44,24C44,22.896 43.104,22 42,22L22,22C20.896,22 20,22.896 20,24C20,25.104 20.896,26 22,26Z"/></g><g transform="matrix(1,0,0,1,0,15)"><path d="M22,26L42,26C43.104,26 44,25.104 44,24C44,22.896 43.104,22 42,22L22,22C20.896,22 20,22.896 20,24C20,25.104 20.896,26 22,26Z"/></g><g transform="matrix(1,0,0,1,0,23)"><path d="M22,26L32,26C33.104,26 34,25.104 34,24C34,22.896 33.104,22 32,22L22,22C20.896,22 20,22.896 20,24C20,25.104 20.896,26 22,26Z"/></g></g></svg>